<svg {{$attributes->merge(['class' => 'fill-current'])}} xmlns="http://www.w3.org/2000/svg" xmlns:xlink="http://www.w3.org/1999/xlink" width="500" zoomAndPan="magnify" viewBox="0 0 375 374.999991" height="500" preserveAspectRatio="xMidYMid meet" version="1.0"><defs><g/><clipPath id="2e3d222fc1"><path d="M 98 143 L 130 143 L 130 175 L 98 175 Z M 98 143 " clip-rule="nonzero"/></clipPath><clipPath id="ed9a02e5d2"><path d="M 126.792969 143.367188 L 129.445312 146.015625 L 100.84375 174.617188 L 98.191406 171.964844 Z M 126.792969 143.367188 " clip-rule="nonzero"/></clipPath><clipPath id="4f1c56687a"><path d="M 87.902344 126.585938 L 91.652344 126.585938 L 91.652344 167.03125 L 87.902344 167.03125 Z M 87.902344 126.585938 " clip-rule="nonzero"/></clipPath><clipPath id="f842fcd44c"><path d="M 52 185 L 84 185 L 84 217 L 52 217 Z M 52 185 " clip-rule="nonzero"/></clipPath><clipPath id="d4691eb5e3"><path d="M 80.929688 185.363281 L 83.582031 188.015625 L 54.984375 216.613281 L 52.332031 213.960938 Z M 80.929688 185.363281 " clip-rule="nonzero"/></clipPath><clipPath id="c8988831e1"><path d="M 37.503906 176.984375 L 77.949219 176.984375 L 77.949219 180.734375 L 37.503906 180.734375 Z M 37.503906 176.984375 " clip-rule="nonzero"/></clipPath><clipPath id="a883257ea8"><path d="M 52 141 L 84 141 L 84 173 L 52 173 Z M 52 141 " clip-rule="nonzero"/></clipPath><clipPath id="3c0e2ed216"><path d="M 83.582031 169.832031 L 80.929688 172.484375 L 52.332031 143.882812 L 54.984375 141.230469 Z M 83.582031 169.832031 " clip-rule="nonzero"/></clipPath></defs>
        <g clip-path="url(#2e3d222fc1)">
        <g clip-path="url(#ed9a02e5d2)"><path fill="var(--primary-color)" d="M 126.792969 143.367188 L 129.445312 146.015625 L 100.84375 174.617188 L 98.191406 171.964844 Z M 126.792969 143.367188 " fill-opacity="1" fill-rule="nonzero"/></g></g>
        <g clip-path="url(#4f1c56687a)"><path fill="var(--primary-color)" d="M 87.902344 126.585938 L 91.652344 126.585938 L 91.652344 167.027344 L 87.902344 167.027344 Z M 87.902344 126.585938 " fill-opacity="1" fill-rule="nonzero"/></g>
            <!-- <g fill="var(--accent-color)" fill-opacity="1"><g transform="translate(89.777598, 214.729908)">
            <g><path d="M 42.90625 -33.984375 L 42.90625 -33.03125 C 41.882812 -32.988281 41.117188 -32.863281 40.609375 -32.65625 C 40.097656 -32.457031 39.753906 -32.078125 39.578125 -31.515625 C 39.398438 -30.953125 39.3125 -30.078125 39.3125 -28.890625 L 39.3125 -5.09375 C 39.3125 -3.9375 39.398438 -3.066406 39.578125 -2.484375 C 39.753906 -1.910156 40.097656 -1.53125 40.609375 -1.34375 C 41.117188 -1.15625 41.882812 -1.023438 42.90625 -0.953125 L 42.90625 0 C 42.007812 -0.0625 40.878906 -0.0976562 39.515625 -0.109375 C 38.160156 -0.128906 36.78125 -0.140625 35.375 -0.140625 C 33.84375 -0.140625 32.40625 -0.128906 31.0625 -0.109375 C 29.71875 -0.0976562 28.628906 -0.0625 27.796875 0 L 27.796875 -0.953125 C 28.878906 -1.023438 29.703125 -1.15625 30.265625 -1.34375 C 30.828125 -1.53125 31.203125 -1.910156 31.390625 -2.484375 C 31.585938 -3.066406 31.6875 -3.9375 31.6875 -5.09375 L 31.6875 -31.0625 L 32.015625 -31.0625 L 20.109375 0.046875 L 19.34375 0.046875 L 6.390625 -30.859375 L 6.390625 -7.875 C 6.390625 -6.113281 6.484375 -4.757812 6.671875 -3.8125 C 6.859375 -2.875 7.28125 -2.203125 7.9375 -1.796875 C 8.59375 -1.398438 9.628906 -1.117188 11.046875 -0.953125 L 11.046875 0 C 10.429688 -0.0625 9.628906 -0.0976562 8.640625 -0.109375 C 7.648438 -0.128906 6.722656 -0.140625 5.859375 -0.140625 C 5.117188 -0.140625 4.363281 -0.128906 3.59375 -0.109375 C 2.832031 -0.0976562 2.195312 -0.0625 1.6875 0 L 1.6875 -0.953125 C 2.707031 -1.117188 3.472656 -1.394531 3.984375 -1.78125 C 4.492188 -2.164062 4.835938 -2.796875 5.015625 -3.671875 C 5.191406 -4.546875 5.28125 -5.753906 5.28125 -7.296875 L 5.28125 -28.890625 C 5.28125 -30.078125 5.191406 -30.953125 5.015625 -31.515625 C 4.835938 -32.078125 4.484375 -32.457031 3.953125 -32.65625 C 3.429688 -32.863281 2.675781 -32.988281 1.6875 -33.03125 L 1.6875 -33.984375 C 2.195312 -33.953125 2.832031 -33.921875 3.59375 -33.890625 C 4.363281 -33.859375 5.117188 -33.84375 5.859375 -33.84375 C 7.234375 -33.84375 8.582031 -33.859375 9.90625 -33.890625 C 11.238281 -33.921875 12.414062 -33.953125 13.4375 -33.984375 L 23.515625 -9.640625 L 22.3125 -8.546875 L 31.96875 -33.84375 C 32.507812 -33.84375 33.066406 -33.84375 33.640625 -33.84375 C 34.222656 -33.84375 34.800781 -33.84375 35.375 -33.84375 C 36.78125 -33.84375 38.160156 -33.859375 39.515625 -33.890625 C 40.878906 -33.921875 42.007812 -33.953125 42.90625 -33.984375 Z M 42.90625 -33.984375 "/></g></g></g>
            <g fill="var(--accent-color)" fill-opacity="1"><g transform="translate(134.273517, 214.729908)"><g><path d="M 16.46875 -33.984375 L 16.46875 -33.03125 C 15.4375 -32.988281 14.65625 -32.863281 14.125 -32.65625 C 13.601562 -32.457031 13.257812 -32.078125 13.09375 -31.515625 C 12.9375 -30.953125 12.859375 -30.078125 12.859375 -28.890625 L 12.859375 -5.09375 C 12.859375 -3.9375 12.945312 -3.066406 13.125 -2.484375 C 13.300781 -1.910156 13.644531 -1.53125 14.15625 -1.34375 C 14.664062 -1.15625 15.4375 -1.023438 16.46875 -0.953125 L 16.46875 0 C 15.601562 -0.0625 14.515625 -0.0976562 13.203125 -0.109375 C 11.890625 -0.128906 10.5625 -0.140625 9.21875 -0.140625 C 7.644531 -0.140625 6.191406 -0.128906 4.859375 -0.109375 C 3.535156 -0.0976562 2.457031 -0.0625 1.625 0 L 1.625 -0.953125 C 2.65625 -1.023438 3.425781 -1.15625 3.9375 -1.34375 C 4.445312 -1.53125 4.789062 -1.910156 4.96875 -2.484375 C 5.144531 -3.066406 5.234375 -3.9375 5.234375 -5.09375 L 5.234375 -28.890625 C 5.234375 -30.078125 5.144531 -30.953125 4.96875 -31.515625 C 4.789062 -32.078125 4.4375 -32.457031 3.90625 -32.65625 C 3.382812 -32.863281 2.625 -32.988281 1.625 -33.03125 L 1.625 -33.984375 C 2.457031 -33.953125 3.535156 -33.921875 4.859375 -33.890625 C 6.191406 -33.859375 7.644531 -33.84375 9.21875 -33.84375 C 10.5625 -33.84375 11.890625 -33.859375 13.203125 -33.890625 C 14.515625 -33.921875 15.601562 -33.953125 16.46875 -33.984375 Z M 16.46875 -33.984375 "/></g></g></g>
            <g fill="var(--accent-color)" fill-opacity="1"><g transform="translate(152.321489, 214.729908)"><g><path d="M 13.625 -34.609375 C 15.519531 -34.609375 16.976562 -34.40625 18 -34 C 19.019531 -33.601562 19.898438 -33.179688 20.640625 -32.734375 C 21.023438 -32.515625 21.335938 -32.347656 21.578125 -32.234375 C 21.816406 -32.117188 22.046875 -32.0625 22.265625 -32.0625 C 22.585938 -32.0625 22.820312 -32.238281 22.96875 -32.59375 C 23.113281 -32.945312 23.234375 -33.472656 23.328125 -34.171875 L 24.4375 -34.171875 C 24.40625 -33.566406 24.363281 -32.835938 24.3125 -31.984375 C 24.257812 -31.140625 24.222656 -30.03125 24.203125 -28.65625 C 24.191406 -27.28125 24.1875 -25.472656 24.1875 -23.234375 L 23.09375 -23.234375 C 22.957031 -24.898438 22.566406 -26.515625 21.921875 -28.078125 C 21.285156 -29.648438 20.382812 -30.9375 19.21875 -31.9375 C 18.050781 -32.945312 16.617188 -33.453125 14.921875 -33.453125 C 13.390625 -33.453125 12.125 -33.019531 11.125 -32.15625 C 10.132812 -31.289062 9.640625 -30.09375 9.640625 -28.5625 C 9.640625 -27.28125 9.957031 -26.179688 10.59375 -25.265625 C 11.238281 -24.359375 12.175781 -23.472656 13.40625 -22.609375 C 14.644531 -21.742188 16.144531 -20.703125 17.90625 -19.484375 C 19.4375 -18.492188 20.8125 -17.503906 22.03125 -16.515625 C 23.25 -15.523438 24.222656 -14.40625 24.953125 -13.15625 C 25.691406 -11.90625 26.0625 -10.414062 26.0625 -8.6875 C 26.0625 -6.570312 25.507812 -4.828125 24.40625 -3.453125 C 23.300781 -2.078125 21.851562 -1.046875 20.0625 -0.359375 C 18.269531 0.328125 16.300781 0.671875 14.15625 0.671875 C 12.175781 0.671875 10.59375 0.476562 9.40625 0.09375 C 8.21875 -0.289062 7.226562 -0.691406 6.4375 -1.109375 C 5.726562 -1.554688 5.179688 -1.78125 4.796875 -1.78125 C 4.472656 -1.78125 4.238281 -1.601562 4.09375 -1.25 C 3.957031 -0.894531 3.84375 -0.363281 3.75 0.34375 L 2.640625 0.34375 C 2.703125 -0.425781 2.738281 -1.320312 2.75 -2.34375 C 2.769531 -3.375 2.785156 -4.710938 2.796875 -6.359375 C 2.816406 -8.003906 2.828125 -10.09375 2.828125 -12.625 L 3.9375 -12.625 C 4.0625 -10.507812 4.421875 -8.53125 5.015625 -6.6875 C 5.609375 -4.851562 6.519531 -3.375 7.75 -2.25 C 8.976562 -1.132812 10.617188 -0.578125 12.671875 -0.578125 C 13.796875 -0.578125 14.796875 -0.773438 15.671875 -1.171875 C 16.546875 -1.578125 17.253906 -2.175781 17.796875 -2.96875 C 18.347656 -3.769531 18.625 -4.765625 18.625 -5.953125 C 18.625 -7.296875 18.3125 -8.460938 17.6875 -9.453125 C 17.0625 -10.441406 16.210938 -11.367188 15.140625 -12.234375 C 14.066406 -13.097656 12.828125 -13.976562 11.421875 -14.875 C 9.921875 -15.875 8.515625 -16.867188 7.203125 -17.859375 C 5.890625 -18.847656 4.835938 -19.984375 4.046875 -21.265625 C 3.265625 -22.546875 2.875 -24.066406 2.875 -25.828125 C 2.875 -27.835938 3.378906 -29.488281 4.390625 -30.78125 C 5.398438 -32.082031 6.726562 -33.046875 8.375 -33.671875 C 10.019531 -34.296875 11.769531 -34.609375 13.625 -34.609375 Z M 13.625 -34.609375 "/></g></g></g>
            <g fill="var(--accent-color)" fill-opacity="1"><g transform="translate(180.353436, 214.729908)"><g><path d="M 1.625 -33.984375 C 2.425781 -33.953125 3.503906 -33.921875 4.859375 -33.890625 C 6.222656 -33.859375 7.578125 -33.84375 8.921875 -33.84375 C 10.460938 -33.84375 11.953125 -33.859375 13.390625 -33.890625 C 14.828125 -33.921875 15.851562 -33.9375 16.46875 -33.9375 C 20.914062 -33.9375 24.242188 -33.054688 26.453125 -31.296875 C 28.660156 -29.535156 29.765625 -27.265625 29.765625 -24.484375 C 29.765625 -23.328125 29.539062 -22.113281 29.09375 -20.84375 C 28.644531 -19.582031 27.882812 -18.414062 26.8125 -17.34375 C 25.738281 -16.28125 24.269531 -15.410156 22.40625 -14.734375 C 20.550781 -14.066406 18.21875 -13.734375 15.40625 -13.734375 L 10.515625 -13.734375 L 10.515625 -14.6875 L 14.921875 -14.6875 C 16.816406 -14.6875 18.25 -15.117188 19.21875 -15.984375 C 20.195312 -16.847656 20.867188 -17.984375 21.234375 -19.390625 C 21.609375 -20.796875 21.796875 -22.316406 21.796875 -23.953125 C 21.796875 -26.992188 21.347656 -29.265625 20.453125 -30.765625 C 19.554688 -32.273438 18.019531 -33.03125 15.84375 -33.03125 C 14.59375 -33.03125 13.78125 -32.753906 13.40625 -32.203125 C 13.039062 -31.660156 12.859375 -30.554688 12.859375 -28.890625 L 12.859375 -5.375 C 12.859375 -4.125 12.984375 -3.195312 13.234375 -2.59375 C 13.492188 -1.988281 13.992188 -1.585938 14.734375 -1.390625 C 15.472656 -1.203125 16.5625 -1.09375 18 -1.0625 L 18 0 C 17.007812 -0.03125 15.726562 -0.0625 14.15625 -0.09375 C 12.59375 -0.125 10.945312 -0.140625 9.21875 -0.140625 C 7.84375 -0.140625 6.5 -0.125 5.1875 -0.09375 C 3.875 -0.0625 2.6875 -0.03125 1.625 0 L 1.625 -0.953125 C 2.65625 -1.023438 3.425781 -1.15625 3.9375 -1.34375 C 4.445312 -1.53125 4.789062 -1.910156 4.96875 -2.484375 C 5.144531 -3.066406 5.234375 -3.9375 5.234375 -5.09375 L 5.234375 -28.890625 C 5.234375 -30.078125 5.144531 -30.953125 4.96875 -31.515625 C 4.789062 -32.078125 4.4375 -32.457031 3.90625 -32.65625 C 3.382812 -32.863281 2.625 -32.988281 1.625 -33.03125 Z M 1.625 -33.984375 "/></g></g></g>
            <g fill="var(--accent-color)" fill-opacity="1"><g transform="translate(211.121378, 214.729908)"><g><path d="M 16.75 -33.984375 L 16.75 -33.03125 C 15.664062 -32.988281 14.84375 -32.863281 14.28125 -32.65625 C 13.71875 -32.457031 13.335938 -32.078125 13.140625 -31.515625 C 12.953125 -30.953125 12.859375 -30.078125 12.859375 -28.890625 L 12.859375 -4.515625 C 12.859375 -3.523438 12.929688 -2.785156 13.078125 -2.296875 C 13.222656 -1.816406 13.507812 -1.5 13.9375 -1.34375 C 14.375 -1.1875 15.023438 -1.109375 15.890625 -1.109375 L 18.234375 -1.109375 C 19.328125 -1.109375 20.351562 -1.363281 21.3125 -1.875 C 22.269531 -2.382812 23.132812 -3.109375 23.90625 -4.046875 C 24.675781 -4.992188 25.316406 -6.125 25.828125 -7.4375 C 26.335938 -8.75 26.71875 -10.207031 26.96875 -11.8125 L 28.078125 -11.8125 C 27.984375 -10.71875 27.9375 -9.304688 27.9375 -7.578125 C 27.9375 -6.847656 27.953125 -5.773438 27.984375 -4.359375 C 28.015625 -2.953125 28.109375 -1.5 28.265625 0 C 26.640625 -0.0625 24.800781 -0.0976562 22.75 -0.109375 C 20.707031 -0.128906 18.882812 -0.140625 17.28125 -0.140625 C 16.476562 -0.140625 15.453125 -0.140625 14.203125 -0.140625 C 12.960938 -0.140625 11.617188 -0.128906 10.171875 -0.109375 C 8.734375 -0.0976562 7.273438 -0.0820312 5.796875 -0.0625 C 4.328125 -0.0507812 2.9375 -0.03125 1.625 0 L 1.625 -0.953125 C 2.65625 -1.023438 3.425781 -1.15625 3.9375 -1.34375 C 4.445312 -1.53125 4.789062 -1.910156 4.96875 -2.484375 C 5.144531 -3.066406 5.234375 -3.9375 5.234375 -5.09375 L 5.234375 -28.890625 C 5.234375 -30.078125 5.144531 -30.953125 4.96875 -31.515625 C 4.789062 -32.078125 4.4375 -32.457031 3.90625 -32.65625 C 3.382812 -32.863281 2.625 -32.988281 1.625 -33.03125 L 1.625 -33.984375 C 2.425781 -33.953125 3.503906 -33.921875 4.859375 -33.890625 C 6.222656 -33.859375 7.675781 -33.84375 9.21875 -33.84375 C 10.625 -33.84375 12.003906 -33.859375 13.359375 -33.890625 C 14.722656 -33.921875 15.851562 -33.953125 16.75 -33.984375 Z M 16.75 -33.984375 "/></g></g></g>
            <g fill="var(--accent-color)" fill-opacity="1"><g transform="translate(240.449322, 214.729908)"><g><path d="M 17.65625 -34.078125 L 29.328125 -4.03125 C 29.773438 -2.875 30.28125 -2.082031 30.84375 -1.65625 C 31.40625 -1.226562 31.910156 -0.992188 32.359375 -0.953125 L 32.359375 0 C 31.390625 -0.0625 30.257812 -0.0976562 28.96875 -0.109375 C 27.675781 -0.128906 26.375 -0.140625 25.0625 -0.140625 C 23.582031 -0.140625 22.1875 -0.128906 20.875 -0.109375 C 19.5625 -0.0976562 18.523438 -0.0625 17.765625 0 L 17.765625 -0.953125 C 19.390625 -1.023438 20.414062 -1.304688 20.84375 -1.796875 C 21.28125 -2.296875 21.179688 -3.359375 20.546875 -4.984375 L 12.390625 -27.3125 L 13.25 -28.5625 L 5.953125 -9.546875 C 5.242188 -7.785156 4.816406 -6.34375 4.671875 -5.21875 C 4.535156 -4.101562 4.617188 -3.242188 4.921875 -2.640625 C 5.222656 -2.035156 5.71875 -1.613281 6.40625 -1.375 C 7.09375 -1.132812 7.914062 -0.992188 8.875 -0.953125 L 8.875 0 C 7.820312 -0.0625 6.816406 -0.0976562 5.859375 -0.109375 C 4.898438 -0.128906 3.921875 -0.140625 2.921875 -0.140625 C 2.222656 -0.140625 1.5625 -0.128906 0.9375 -0.109375 C 0.3125 -0.0976562 -0.238281 -0.0625 -0.71875 0 L -0.71875 -0.953125 C -0.0507812 -1.085938 0.632812 -1.519531 1.34375 -2.25 C 2.050781 -2.988281 2.738281 -4.238281 3.40625 -6 L 14.359375 -34.078125 C 14.867188 -34.046875 15.414062 -34.03125 16 -34.03125 C 16.59375 -34.03125 17.144531 -34.046875 17.65625 -34.078125 Z M 21.03125 -13.828125 L 21.03125 -12.859375 L 6.71875 -12.859375 L 7.203125 -13.828125 Z M 21.03125 -13.828125 "/></g></g></g>
            <g fill="var(--accent-color)" fill-opacity="1"><g transform="translate(272.465266, 214.729908)"><g><path d="M 19.0625 -34.65625 C 21.164062 -34.65625 22.894531 -34.34375 24.25 -33.71875 C 25.613281 -33.09375 26.828125 -32.363281 27.890625 -31.53125 C 28.523438 -31.050781 29.007812 -30.992188 29.34375 -31.359375 C 29.6875 -31.734375 29.921875 -32.609375 30.046875 -33.984375 L 31.15625 -33.984375 C 31.09375 -32.734375 31.039062 -31.21875 31 -29.4375 C 30.96875 -27.664062 30.953125 -25.3125 30.953125 -22.375 L 29.859375 -22.375 C 29.691406 -23.84375 29.476562 -25.097656 29.21875 -26.140625 C 28.96875 -27.179688 28.617188 -28.097656 28.171875 -28.890625 C 27.722656 -29.691406 27.082031 -30.414062 26.25 -31.0625 C 25.457031 -31.851562 24.53125 -32.441406 23.46875 -32.828125 C 22.414062 -33.210938 21.3125 -33.40625 20.15625 -33.40625 C 18.425781 -33.40625 16.953125 -32.945312 15.734375 -32.03125 C 14.523438 -31.125 13.539062 -29.882812 12.78125 -28.3125 C 12.03125 -26.75 11.476562 -24.984375 11.125 -23.015625 C 10.78125 -21.046875 10.609375 -19.003906 10.609375 -16.890625 C 10.609375 -14.753906 10.789062 -12.703125 11.15625 -10.734375 C 11.53125 -8.765625 12.109375 -7.007812 12.890625 -5.46875 C 13.671875 -3.9375 14.6875 -2.722656 15.9375 -1.828125 C 17.1875 -0.929688 18.660156 -0.484375 20.359375 -0.484375 C 21.410156 -0.484375 22.472656 -0.679688 23.546875 -1.078125 C 24.617188 -1.484375 25.535156 -2.066406 26.296875 -2.828125 C 27.546875 -3.785156 28.394531 -4.976562 28.84375 -6.40625 C 29.289062 -7.832031 29.628906 -9.726562 29.859375 -12.09375 L 30.953125 -12.09375 C 30.953125 -9.050781 30.96875 -6.59375 31 -4.71875 C 31.039062 -2.851562 31.09375 -1.28125 31.15625 0 L 30.046875 0 C 29.921875 -1.375 29.703125 -2.238281 29.390625 -2.59375 C 29.085938 -2.945312 28.585938 -2.898438 27.890625 -2.453125 C 26.703125 -1.617188 25.441406 -0.890625 24.109375 -0.265625 C 22.785156 0.359375 21.085938 0.671875 19.015625 0.671875 C 15.617188 0.671875 12.644531 -0.015625 10.09375 -1.390625 C 7.550781 -2.765625 5.578125 -4.75 4.171875 -7.34375 C 2.765625 -9.9375 2.0625 -13.054688 2.0625 -16.703125 C 2.0625 -20.285156 2.789062 -23.421875 4.25 -26.109375 C 5.707031 -28.796875 7.707031 -30.890625 10.25 -32.390625 C 12.789062 -33.898438 15.726562 -34.65625 19.0625 -34.65625 Z M 19.0625 -34.65625 "/></g></g></g>
            <g fill="var(--accent-color)" fill-opacity="1"><g transform="translate(306.305203, 214.729908)"><g><path d="M 27.3125 -33.984375 C 27.1875 -32.578125 27.097656 -31.21875 27.046875 -29.90625 C 26.992188 -28.59375 26.96875 -27.582031 26.96875 -26.875 C 26.96875 -26.238281 26.984375 -25.628906 27.015625 -25.046875 C 27.054688 -24.472656 27.09375 -23.992188 27.125 -23.609375 L 26.015625 -23.609375 C 25.691406 -25.953125 25.191406 -27.800781 24.515625 -29.15625 C 23.847656 -30.519531 22.976562 -31.476562 21.90625 -32.03125 C 20.832031 -32.59375 19.578125 -32.875 18.140625 -32.875 L 16.171875 -32.875 C 15.242188 -32.875 14.539062 -32.796875 14.0625 -32.640625 C 13.582031 -32.484375 13.257812 -32.160156 13.09375 -31.671875 C 12.9375 -31.191406 12.859375 -30.457031 12.859375 -29.46875 L 12.859375 -4.515625 C 12.859375 -3.523438 12.9375 -2.785156 13.09375 -2.296875 C 13.257812 -1.816406 13.582031 -1.5 14.0625 -1.34375 C 14.539062 -1.1875 15.242188 -1.109375 16.171875 -1.109375 L 18.53125 -1.109375 C 19.96875 -1.109375 21.238281 -1.414062 22.34375 -2.03125 C 23.445312 -2.65625 24.390625 -3.71875 25.171875 -5.21875 C 25.960938 -6.726562 26.5625 -8.765625 26.96875 -11.328125 L 28.078125 -11.328125 C 27.984375 -10.304688 27.9375 -8.960938 27.9375 -7.296875 C 27.9375 -6.554688 27.953125 -5.515625 27.984375 -4.171875 C 28.015625 -2.828125 28.109375 -1.4375 28.265625 0 C 26.640625 -0.0625 24.800781 -0.0976562 22.75 -0.109375 C 20.707031 -0.128906 18.882812 -0.140625 17.28125 -0.140625 C 16.476562 -0.140625 15.453125 -0.140625 14.203125 -0.140625 C 12.960938 -0.140625 11.617188 -0.128906 10.171875 -0.109375 C 8.734375 -0.0976562 7.273438 -0.0820312 5.796875 -0.0625 C 4.328125 -0.0507812 2.9375 -0.03125 1.625 0 L 1.625 -0.953125 C 2.65625 -1.023438 3.425781 -1.15625 3.9375 -1.34375 C 4.445312 -1.53125 4.789062 -1.910156 4.96875 -2.484375 C 5.144531 -3.066406 5.234375 -3.9375 5.234375 -5.09375 L 5.234375 -28.890625 C 5.234375 -30.078125 5.144531 -30.953125 4.96875 -31.515625 C 4.789062 -32.078125 4.4375 -32.457031 3.90625 -32.65625 C 3.382812 -32.863281 2.625 -32.988281 1.625 -33.03125 L 1.625 -33.984375 C 2.9375 -33.953125 4.328125 -33.925781 5.796875 -33.90625 C 7.273438 -33.894531 8.734375 -33.878906 10.171875 -33.859375 C 11.617188 -33.847656 12.960938 -33.84375 14.203125 -33.84375 C 15.453125 -33.84375 16.476562 -33.84375 17.28125 -33.84375 C 18.75 -33.84375 20.421875 -33.847656 22.296875 -33.859375 C 24.171875 -33.878906 25.84375 -33.921875 27.3125 -33.984375 Z M 19.828125 -17.5625 C 19.828125 -17.5625 19.828125 -17.398438 19.828125 -17.078125 C 19.828125 -16.765625 19.828125 -16.609375 19.828125 -16.609375 L 11.421875 -16.609375 C 11.421875 -16.609375 11.421875 -16.765625 11.421875 -17.078125 C 11.421875 -17.398438 11.421875 -17.5625 11.421875 -17.5625 Z M 21.21875 -23.90625 C 21.09375 -22.082031 21.035156 -20.6875 21.046875 -19.71875 C 21.066406 -18.757812 21.078125 -17.882812 21.078125 -17.09375 C 21.078125 -16.289062 21.09375 -15.410156 21.125 -14.453125 C 21.15625 -13.492188 21.234375 -12.097656 21.359375 -10.265625 L 20.25 -10.265625 C 20.09375 -11.390625 19.796875 -12.429688 19.359375 -13.390625 C 18.929688 -14.347656 18.316406 -15.125 17.515625 -15.71875 C 16.710938 -16.3125 15.675781 -16.609375 14.40625 -16.609375 L 14.40625 -17.5625 C 15.363281 -17.5625 16.175781 -17.757812 16.84375 -18.15625 C 17.519531 -18.5625 18.070312 -19.09375 18.5 -19.75 C 18.9375 -20.40625 19.28125 -21.097656 19.53125 -21.828125 C 19.789062 -22.566406 19.984375 -23.257812 20.109375 -23.90625 Z M 21.21875 -23.90625 "/></g></g></g> -->
        <g clip-path="url(#f842fcd44c)">
        <g clip-path="url(#d4691eb5e3)"><path fill="var(--primary-color)" d="M 80.929688 185.363281 L 83.582031 188.015625 L 54.984375 216.613281 L 52.332031 213.960938 Z M 80.929688 185.363281 " fill-opacity="1" fill-rule="nonzero"/></g></g>
        <g clip-path="url(#c8988831e1)"><path fill="var(--primary-color)" d="M 37.503906 180.734375 L 37.503906 176.984375 L 77.945312 176.984375 L 77.945312 180.734375 Z M 37.503906 180.734375 " fill-opacity="1" fill-rule="nonzero"/></g>
        <g clip-path="url(#a883257ea8)">
        <g clip-path="url(#3c0e2ed216)"><path fill="var(--primary-color)" d="M 83.582031 169.832031 L 80.929688 172.484375 L 52.332031 143.882812 L 54.984375 141.234375 Z M 83.582031 169.832031 " fill-opacity="1" fill-rule="nonzero"/></g></g>
</svg>